<?xml version="1.0" encoding="UTF-8" standalone="no"?>
<!-- Created with Inkscape (http://www.inkscape.org/) -->

<svg
   version="1.1"
   id="svg2"
   width="672"
   height="167.33334"
   viewBox="0 50 672 167.33334"
   sodipodi:docname="UniversityOfWaterloo_logo_horiz_pms.eps"
   xmlns:inkscape="http://www.inkscape.org/namespaces/inkscape"
   xmlns:sodipodi="http://sodipodi.sourceforge.net/DTD/sodipodi-0.dtd"
   xmlns="http://www.w3.org/2000/svg"
   xmlns:svg="http://www.w3.org/2000/svg">
  <defs
     id="defs6" />
  <sodipodi:namedview
     id="namedview4"
     pagecolor="#ffffff"
     bordercolor="#000000"
     borderopacity="0.25"
     inkscape:showpageshadow="2"
     inkscape:pageopacity="0.0"
     inkscape:pagecheckerboard="0"
     inkscape:deskcolor="#d1d1d1" />
  <g
     id="g8"
     inkscape:groupmode="layer"
     inkscape:label="ink_ext_XXXXXX"
     transform="matrix(1.3333333,0,0,-1.3333333,0,267.33333)">
    <g
       id="g10"
       transform="scale(0.1)">
      <path
         d="m 1534.98,1157.58 h 78.72 l 69.03,-224.74 74.88,225.7 h 62.86 l 74.83,-225.7 69.09,224.74 h 76.74 L 1927.19,823.281 h -63.79 l -75.25,217.129 -75.37,-217.129 h -63.85 l -113.95,334.299"
         style="fill:#231f20;fill-opacity:1;fill-rule:nonzero;stroke:none"
         id="path12" />
      <path
         d="m 2157.35,1157.64 h 67.72 l 142.89,-334.359 h -76.67 l -30.5,74.508 h -141.06 l -30.53,-74.508 h -74.85 z m 77.24,-195.37 -44.28,107.62 L 2146,962.27 Z"
         style="fill:#231f20;fill-opacity:1;fill-rule:nonzero;stroke:none"
         id="path14" />
      <path
         d="m 2447.99,1087.91 h -101.51 v 67.32 h 276.46 v -67.32 H 2521.49 V 823.281 h -73.5 v 264.629"
         style="fill:#231f20;fill-opacity:1;fill-rule:nonzero;stroke:none"
         id="path16" />
      <path
         d="m 2678.76,1155.23 h 251.66 v -64.87 h -178.74 v -67.39 H 2909 v -65.048 h -157.32 v -69.66 h 181.07 v -64.981 h -253.99 v 331.949"
         style="fill:#231f20;fill-opacity:1;fill-rule:nonzero;stroke:none"
         id="path18" />
      <path
         d="m 3011.72,1155.23 h 152.58 c 42.36,0 75.23,-11.83 97.17,-33.69 18.58,-18.48 28.61,-44.49 28.61,-75.78 v -1.01 c 0,-53.602 -29.05,-87.289 -71.47,-102.941 l 81.42,-118.528 h -85.8 l -71.47,106.239 h -57.6 V 823.281 h -73.44 z m 147.75,-161.25 c 35.8,0 56.29,18.98 56.29,46.94 v 0.96 c 0,31.31 -22,47.43 -57.72,47.43 h -72.88 v -95.33 h 74.31"
         style="fill:#231f20;fill-opacity:1;fill-rule:nonzero;stroke:none"
         id="path20" />
      <path
         d="m 3371.06,1155.23 h 73.37 V 889.66 h 156.2 v -66.379 h -229.57 v 331.949"
         style="fill:#231f20;fill-opacity:1;fill-rule:nonzero;stroke:none"
         id="path22" />
      <path
         d="m 3611.91,988.32 v 0.989 c 0,94.281 74.83,171.671 177.86,171.671 102.89,0 176.81,-76.39 176.81,-170.769 v -0.902 c 0,-94.438 -74.86,-171.719 -177.78,-171.719 -102.91,0 -176.89,76.359 -176.89,170.73 m 277.88,0 v 0.989 c 0,56.801 -41.9,104.311 -100.99,104.311 -59.12,0 -100.1,-46.51 -100.1,-103.409 v -0.902 c 0,-56.918 41.93,-104.411 101.07,-104.411 59.04,0 100.02,46.454 100.02,103.422"
         style="fill:#231f20;fill-opacity:1;fill-rule:nonzero;stroke:none"
         id="path24" />
      <path
         d="m 3987.15,988.32 v 0.989 c 0,94.281 74.8,171.671 177.72,171.671 103.01,0 176.87,-76.39 176.87,-170.769 v -0.902 c 0,-94.438 -74.83,-171.719 -177.78,-171.719 -102.94,0 -176.81,76.359 -176.81,170.73 m 277.89,0 v 0.989 c 0,56.801 -41.93,104.311 -101.08,104.311 -59.04,0 -100.06,-46.51 -100.06,-103.409 v -0.902 c 0,-56.918 41.95,-104.411 100.97,-104.411 59.12,0 100.17,46.454 100.17,103.422"
         style="fill:#231f20;fill-opacity:1;fill-rule:nonzero;stroke:none"
         id="path26" />
      <path
         d="m 1721.22,1323.21 v 87.4 h 33.82 v -86.52 c 0,-24.91 12.52,-37.8 33.15,-37.8 20.64,0 33.16,12.46 33.16,36.7 v 87.62 h 33.83 v -86.29 c 0,-46.33 -26.14,-69.06 -67.42,-69.06 -41.29,0 -66.54,22.95 -66.54,67.95"
         style="fill:#231f20;fill-opacity:1;fill-rule:nonzero;stroke:none"
         id="path28" />
      <path
         d="m 1945.1,1410.61 h 31.19 l 72.04,-94.18 v 94.18 h 33.37 v -152.95 h -28.78 l -74.44,97.23 v -97.23 h -33.38 v 152.95"
         style="fill:#231f20;fill-opacity:1;fill-rule:nonzero;stroke:none"
         id="path30" />
      <path
         d="m 2177.85,1410.61 h 33.83 v -152.95 h -33.83 v 152.95"
         style="fill:#231f20;fill-opacity:1;fill-rule:nonzero;stroke:none"
         id="path32" />
      <path
         d="M 2294.69,1410.61 H 2332 l 40.21,-107.72 40.19,107.72 h 36.43 l -62.12,-154.03 h -29.87 l -62.15,154.03"
         style="fill:#231f20;fill-opacity:1;fill-rule:nonzero;stroke:none"
         id="path34" />
      <path
         d="m 2530.27,1410.61 h 115.97 v -29.94 h -82.34 v -31.02 h 72.45 v -29.93 h -72.45 v -32.14 h 83.41 v -29.92 h -117.04 v 152.95"
         style="fill:#231f20;fill-opacity:1;fill-rule:nonzero;stroke:none"
         id="path36" />
      <path
         d="m 2803.25,1336.32 c 16.45,0 25.91,8.74 25.91,21.64 v 0.43 c 0,14.43 -10.11,21.86 -26.58,21.86 h -33.59 v -43.93 z m -68.07,74.29 h 70.27 c 19.55,0 34.7,-5.45 44.78,-15.53 8.57,-8.49 13.18,-20.53 13.18,-34.94 v -0.44 c 0,-24.68 -13.41,-40.19 -32.94,-47.41 l 37.56,-54.63 h -39.54 l -32.91,48.96 h -26.59 v -48.96 h -33.81 v 152.95"
         style="fill:#231f20;fill-opacity:1;fill-rule:nonzero;stroke:none"
         id="path38" />
      <path
         d="m 2941.14,1279.96 19.98,23.79 c 13.84,-11.34 28.32,-18.56 45.89,-18.56 13.84,0 22.18,5.47 22.18,14.42 v 0.44 c 0,8.53 -5.27,12.9 -30.95,19.46 -30.95,7.86 -50.95,16.38 -50.95,46.76 v 0.43 c 0,27.74 22.41,46.11 53.79,46.11 22.4,0 41.52,-7.01 57.08,-19.45 L 3040.6,1368 c -13.59,9.39 -26.99,15.08 -39.95,15.08 -12.95,0 -19.78,-5.89 -19.78,-13.33 v -0.43 c 0,-10.06 6.61,-13.32 33.19,-20.1 31.17,-8.08 48.73,-19.24 48.73,-45.88 v -0.45 c 0,-30.37 -23.27,-47.42 -56.44,-47.42 -23.26,0 -46.78,8.1 -65.21,24.49"
         style="fill:#231f20;fill-opacity:1;fill-rule:nonzero;stroke:none"
         id="path40" />
      <path
         d="m 3151.52,1410.61 h 33.8 v -152.95 h -33.8 v 152.95"
         style="fill:#231f20;fill-opacity:1;fill-rule:nonzero;stroke:none"
         id="path42" />
      <path
         d="m 3317.29,1379.57 h -46.78 v 31.04 h 127.37 v -31.04 h -46.8 v -121.91 h -33.79 v 121.91"
         style="fill:#231f20;fill-opacity:1;fill-rule:nonzero;stroke:none"
         id="path44" />
      <path
         d="m 3524.79,1317.97 -59.06,92.64 h 39.51 l 36.69,-61.39 37.32,61.39 h 38.43 l -59.07,-91.98 v -60.97 h -33.82 v 60.31"
         style="fill:#231f20;fill-opacity:1;fill-rule:nonzero;stroke:none"
         id="path46" />
      <path
         d="m 3937.84,1333.7 v 0.43 c 0,26.23 -19.31,48.06 -46.55,48.06 -27.23,0 -46.11,-21.39 -46.11,-47.62 v -0.44 c 0,-26.2 19.31,-48.07 46.56,-48.07 27.22,0 46.1,21.42 46.1,47.64 z m -128.02,0 v 0.43 c 0,43.49 34.5,79.11 81.92,79.11 47.44,0 81.47,-35.19 81.47,-78.67 v -0.44 c 0,-43.47 -34.48,-79.09 -81.92,-79.09 -47.43,0 -81.47,35.17 -81.47,78.66"
         style="fill:#231f20;fill-opacity:1;fill-rule:nonzero;stroke:none"
         id="path48" />
      <path
         d="m 4045.84,1410.61 h 117.05 v -30.59 h -83.25 v -32.56 H 4153 v -30.58 h -73.36 v -59.22 h -33.8 v 152.95"
         style="fill:#231f20;fill-opacity:1;fill-rule:nonzero;stroke:none"
         id="path50" />
      <path
         d="m 1066.11,568.898 -8.99,4.172 C 957.348,619.012 876.836,685.75 824.238,766.051 698.113,958.602 693.953,1157.52 689.551,1368.09 c -0.348,15.96 -0.672,31.93 -1.071,47.99 l -0.527,21.78 h 755.897 l -0.53,-21.8 c -0.4,-16.11 -0.75,-32.21 -1.06,-48.28 -4.45,-210.45 -8.63,-409.292 -134.72,-601.729 C 1255.07,685.871 1174.69,619.16 1075.1,573.07 l -8.99,-4.172"
         style="fill:#ffffff;fill-opacity:1;fill-rule:nonzero;stroke:none"
         id="path52" />
      <path
         d="M 1064.38,1178.56 768.215,946.578 c -47.602,146.702 -46.277,300.062 -50.11,456.252 h 690.975 c -3.82,-156.58 -2.04,-309.32 -49.98,-456.361 l -294.72,232.091"
         style="fill:#fcce28;fill-opacity:1;fill-rule:nonzero;stroke:none"
         id="path54" />
      <path
         d="m 1304.2,821.371 c -7.3,-12.902 -15.1,-25.723 -23.48,-38.519 -52.67,-80.481 -130.91,-140.043 -216.95,-179.832 -86.391,39.789 -164.606,99.351 -217.305,179.832 -8.207,12.5 -22.988,37.617 -22.988,37.617 L 1064.38,1011.78 1304.2,821.371"
         style="fill:#fcce28;fill-opacity:1;fill-rule:nonzero;stroke:none"
         id="path56" />
      <path
         d="m 861.625,1285.06 c -34.992,7.4 -66.141,33.28 -58.629,66.14 0.074,0.31 -1.34,8.48 -4.359,9.6 -0.242,0.1 -0.739,1.02 -1.25,1.16 -1.332,0.35 -2.442,0.93 -3.563,1.74 -0.39,0.29 -2.027,0.82 -2.027,1.4 -0.625,-1.35 -0.496,-2.6 -1.438,-3.79 -0.32,-0.43 -0.828,-1.12 -1.32,-1.38 -0.637,-0.34 -0.68,-0.91 -1.168,-1.34 -2.621,-2.63 -1.223,-6.59 -0.816,-9.61 0.117,-0.76 0.445,-1.69 -0.489,-1.85 -1.121,-0.2 -0.218,0.3 -1.511,1.09 -0.309,0.19 -0.758,0.67 -1.086,0.83 -0.547,0.26 -2.735,0.56 -3.09,1.09 -0.399,0.57 -0.231,0.75 -0.75,1.22 -1.227,1.09 -1.336,3.23 -2.219,5.47 -0.152,0.4 -0.512,2.33 -0.512,2.76 0,2.23 -5.71,5.8 -3.492,3.98 0.758,-0.64 -0.133,0.9 -3.176,1.65 -1.921,0.49 -4.167,0.38 -6.328,0.12 -0.457,-0.08 -0.871,-0.45 -1.187,-0.68 -2.235,-1.73 -4.293,-3.77 -7.18,-3.89 0.485,0.31 0.738,-0.28 0.953,-0.53 1.379,-1.77 0.379,-3.95 1.192,-5.9 0.82,-1.91 2.218,-3.38 3.851,-4.69 1.598,-1.24 4.371,0.39 5.598,-1.77 0,0.07 2.605,-0.6 0.043,-3.16 -4.707,-4.72 -9.938,-0.91 -13.832,-9.66 5.894,2.52 6.558,-6.42 9.066,-6.76 11.278,-1.53 19.864,-3.51 26.059,-14.89 3.777,-6.94 -6.777,-7.27 2.773,-8.89 4.848,-0.83 8.09,-3.27 10.543,-6.68 2.574,-3.6 2.93,-8.4 5.672,-11.76 2.008,-2.4 2.766,-2.88 5.168,-4.88 1.094,-0.91 4.559,-1.81 5.859,-2.13 1.297,-0.36 2.079,-1 3.325,-1.45 1.316,-0.48 2.707,-0.94 3.816,-1.85 0.942,-0.79 3.332,-1.59 3.879,-2.68 0.98,-1.91 0.199,-3.86 1.234,-5.78 0.321,-0.53 1.801,-0.06 2.426,-0.26 0.586,-0.21 1.922,-0.29 2.281,-0.21 2.289,0.52 2.848,0.68 4.555,0.87 2.606,0.3 2.309,-0.52 5.68,-0.35 0.719,0 1.008,-0.52 1.976,-0.52 0.657,0 1.793,-0.7 1.981,-0.11 1.015,3.2 2.695,6.28 4.597,9.39 1.875,3.1 1.723,3.4 4.114,6.66 -0.285,-0.1 3.074,2.24 2.781,2.28"
         style="fill:#c41b31;fill-opacity:1;fill-rule:nonzero;stroke:none"
         id="path58" />
      <path
         d="m 774.313,1281.01 c 10.242,-5.5 8.863,-19.05 18.093,-23.44 16.438,-7.78 36.055,-13.13 53.532,-4.6 -3.887,-12.09 0.41,-22.2 -1.29,-23.56 -5.488,-4.39 -22.168,0.83 -32.851,5.04 -7.363,2.91 -13.328,-7.96 -21.449,-7.01 0.41,0.94 1.332,3.74 0.781,5.45 -1.274,3.95 -2.301,5.08 -8.879,4.32 -4.242,-0.47 -2.484,-3.95 -8.836,-7.06 -2.512,1.49 -7.887,3.17 -8.672,-1.59 -0.363,-2.21 -4.836,7.71 -3.937,9.37 4.16,7.43 5.011,9.16 4.718,10.77 -0.5,2.44 -9.507,5.75 -10.679,3.68 -2.801,-4.88 -11.071,15.77 13.344,14.46 -6.571,4.2 -5.809,4.92 -4.282,9.92 0.196,0.69 -2.265,3.28 -3.941,1.49 -0.551,1.92 0.754,4.02 2.281,4.2 4.02,0.56 7.953,0.78 12.067,-1.44"
         style="fill:#c41b31;fill-opacity:1;fill-rule:nonzero;stroke:none"
         id="path60" />
      <path
         d="m 822.891,1331.08 c 14.82,-3.4 36.972,15.62 49.839,-6.81 -9.5,3.45 -37.585,-11.51 -49.839,6.81"
         style="fill:#c41b31;fill-opacity:1;fill-rule:nonzero;stroke:none"
         id="path62" />
      <path
         d="m 946.813,1298.46 c -0.29,-19.22 -20.286,-39.96 -4.071,-58.25 -6.625,0.1 -14.48,2.37 -19.09,6.1 -2.574,2.09 -2.007,-9.15 -1.664,-11.46 0.309,-1.97 -12.32,11.83 -17.05,8.47 -13.379,-9.57 -19.192,-13.53 -39.075,-14.26 -5.527,-0.2 -8.406,-4.62 -9.972,-9.43 -4.512,9.16 -1.161,30.02 1.429,39.28 7.035,25.41 32.676,32.95 53.25,45.09 14.762,8.74 21.078,25.81 20.332,42.47 10.461,-13.03 16.145,-31.67 15.911,-48.01"
         style="fill:#c41b31;fill-opacity:1;fill-rule:nonzero;stroke:none"
         id="path64" />
      <path
         d="m 852.672,1082.11 c 2.508,-0.56 0.644,-2.62 -0.336,-3.25 -2.055,-1.34 -3.457,-3 -4.758,-5.04 -0.984,-1.51 -1.676,-3.14 -1.305,-5.01 0.258,-1.37 0.731,-2.6 1.243,-3.85 0.332,-0.76 1.043,-1.19 1.629,-1.84 0.242,-0.23 1.136,-1.38 1.16,-1.46 -0.559,1.93 2.195,3.88 2.836,3.52 12.742,-7.36 13.48,7.54 21.117,12.61 3.242,2.17 10.562,-0.34 8.668,-6.95 7.609,4.05 9.851,14.23 15.785,20.62 13.105,14.14 31.465,23.54 48.894,31.2 -6.304,6.68 -15.585,12.27 -20.296,19.88 -2.321,3.78 -5.102,11.19 0.046,9.83 21.422,-5.57 33.446,7.44 35.825,24.23 31.722,-4.08 39.98,25.77 44.27,48.33 2.06,10.95 8.09,11.89 1.51,30.54 -2.74,7.8 14.08,10.35 11.22,23.82 -0.8,3.72 -5.42,7.46 -8.16,7.9 2.6,-7.25 -9.61,-9.09 -10.95,-12.05 -2.062,-4.65 -5.078,-8.38 -5.488,-13.25 -10.344,14.23 -1.961,31.38 7.748,44.71 14.16,19.41 43.53,9.2 55.89,-3.31 0.23,6.28 -4.66,14.27 -8.69,18.12 11.56,1.48 24.1,-5.53 39.88,2.79 9.1,4.82 18.3,8.94 22.57,19.63 -19.37,-2.64 -45.6,12.19 -63.05,15.22 -32.52,5.61 -54.348,-16.47 -65.989,-42.8 -11.586,-26.29 -4.156,-45.91 8.418,-65.56 3.161,-4.96 -11.168,-1.7 -16.816,-4.61 -5.508,-2.83 -7.754,-9.59 -6.504,-15.57 6.941,7.42 25.32,2.85 26.973,-9.83 2.269,-17.12 -15.067,-42.02 -31.824,-34.56 -17.926,8.01 -28.083,26.83 -34.047,48.01 -15.313,-13.14 -43.657,-2.29 -56.821,-15.12 -12.515,-12.2 19.512,-20.47 31.977,-26.21 4.601,-2.15 9.195,-6.82 8.437,-12.59 -19.531,11.43 -43.05,-1.52 -41.902,-22.3 0.883,-15.52 19.961,-25.17 35.859,-26.48 6.618,-0.53 10.606,-7.87 2.551,-12.87 -14.121,-8.79 -29.855,-18.58 -45.07,-2.72 -2.539,2.66 -11.652,1 -13.457,-3.82 -0.879,-2.35 -1.168,-5.94 -0.793,-8.32 0.816,1.44 1.781,3.49 3.07,3.32 1.496,-0.2 3.328,-1.76 3.121,-2.88 -1.312,-7.78 -11.586,-2.73 -14.769,-8.79 -0.074,-0.14 -0.239,-0.26 -0.317,-0.4 -0.195,-0.49 -0.468,-0.92 -0.695,-1.37 -2.086,-4.12 -4.945,-6.71 0.184,-9.91 -0.133,0.75 2.539,-3.28 2.484,-3.99 0.254,3.73 4.152,3.68 4.152,3.68 l 2.258,-0.24 2.262,-1.01"
         style="fill:#c41b31;fill-opacity:1;fill-rule:nonzero;stroke:none"
         id="path66" />
      <path
         d="m 786.566,1155.22 c -2.023,0.64 -4.117,-0.14 -6.105,-1.04 -1.273,-0.55 -2.805,0.04 -3.586,-1.25 -0.469,-0.78 -0.754,-1.64 -0.496,-2.52 0.125,-0.47 0.332,-1.36 0.73,-1.64 -2.675,0.22 -5.191,2.02 -7.238,3.85 -0.668,0.6 -1.07,1.26 -1.711,1.92 -0.41,0.42 -0.363,1.21 -0.637,1.79 -0.289,0.63 -0.16,1.33 -0.175,1.97 -0.067,1.84 -0.114,3.72 0.715,5.43 0.378,0.77 0.765,1.57 1.332,2.23 0.445,0.58 0.882,1.01 1.371,1.48 1.375,1.31 2.894,2.31 4.707,2.85 2.64,0.79 5.527,0.55 8.05,-0.56 2.012,-0.86 4.403,-0.76 6.516,-1.33 1.133,-0.32 3.242,2.92 1.715,3.3 -6.664,1.6 -6.633,3.4 -9.125,10.1 -1.164,1.32 -2.691,-0.18 -3.348,-0.88 -0.027,12.87 15.293,13.71 21.711,8.62 9.481,-7.6 2.352,-22.45 14.012,-26.55 6.066,-2.15 12.492,-3.81 18.766,-1.16 11.257,4.78 0.031,16.03 3.656,25.56 7.347,19.21 23.629,20.21 43.023,1.7 -17.344,-5.73 -25.453,-28.57 -15.957,-43.62 -15.297,5.98 -34.586,-4.09 -45.336,-10.92 9.989,9.97 -4.051,18.01 -7.59,16.24 l -4.265,-2.95 c -2.043,-2.58 -2.199,-5.24 -4.719,-7.7 -1.414,-1.37 -2.215,-1.64 -4.059,-2.11 -2.543,-0.66 -4.113,-0.46 -6.375,1.04 -0.41,0.25 -1.789,-0.34 -2.043,-0.67 -1.222,-1.5 -0.042,-2.22 -0.066,-2.79 -0.25,0.19 -1.836,1.46 -2.066,1.64 -1.446,1.09 -3.102,2.03 -4.004,3.5 -0.903,1.48 -1.52,5.21 -0.492,7.24 1,2.01 3.039,2.65 4.394,4.03 1.289,1.28 -0.25,3.26 -1.793,3.49"
         style="fill:#c41b31;fill-opacity:1;fill-rule:nonzero;stroke:none"
         id="path68" />
      <path
         d="m 1158.91,1324.89 c 1.37,-0.88 -0.11,-3.36 -1.69,-3.81 -1.86,-0.51 -4.47,0.27 -6.1,-0.36 -7.3,-2.67 -7.31,-20.52 -6.32,-18.45 1.1,2.28 6.49,0.79 9.97,0.11 5.63,-1.15 9.89,10.23 13.59,9.92 8.76,-0.79 16.96,-11.63 20.29,-18.75 0.61,-1.31 -3.67,-1.36 -3.95,-5.74 11.94,1.12 22.02,-6.6 30.65,-13.65 4.2,7.27 8.44,11.76 13.21,16.51 -17.95,17.38 -53.64,22.75 -48.13,54.43 0.73,4.06 -3.89,7.65 -5.93,9.65 -2.34,2.21 -7.62,2.32 -10.86,3.1 3.41,-7.03 -2.74,-7.71 -1.86,-18.85 0,-0.35 -1.01,-0.13 -1.4,0.04 -2.14,0.91 -3.97,2.23 -6.02,3.5 -1.84,1.16 -3.57,0.84 -5.61,0.55 -1.25,-0.18 -2.37,-0.74 -3.42,-1.48 -1.7,-1.22 -2.57,-2.77 -3.74,-4.5 -0.24,-0.29 -0.47,-0.66 -0.74,-0.93 -0.38,-0.4 -1.14,-1.59 -1.2,-2.2 0.94,0.09 3.83,-0.13 4.33,-0.9 0.82,-1.3 0.85,-2.78 1.84,-4.02 1.24,-1.56 2.27,-1.61 4.06,-2.36 2.79,-1.17 5.29,-1.7 8.34,-1.43"
         style="fill:#c41b31;fill-opacity:1;fill-rule:nonzero;stroke:none"
         id="path70" />
      <path
         d="m 1205.32,1337.65 c 11.21,0.83 22.32,9.39 34.71,-5.09 -2.3,1.1 -4.95,1.47 -6.35,0.35 -13.71,-11 -30.36,-7.28 -39.14,6.34 3.58,0.57 7.89,-1.82 10.78,-1.6"
         style="fill:#c41b31;fill-opacity:1;fill-rule:nonzero;stroke:none"
         id="path72" />
      <path
         d="m 1253.81,1297.18 c 18.41,9.27 37.03,16.72 44.61,39.46 1.48,4.42 4.89,-6.62 5.1,-7.24 9.74,-27.74 -9.67,-55.31 -5.68,-83.61 -6.49,3.94 -13.78,6.66 -20.89,6.87 -25.29,0.72 -31.28,-14.57 -32.72,-13.14 -6.93,6.97 -26.84,12.96 -25.39,11.64 -11.81,10.87 22.28,39.59 34.97,46.02"
         style="fill:#c41b31;fill-opacity:1;fill-rule:nonzero;stroke:none"
         id="path74" />
      <path
         d="m 1203.46,1112.56 c 2.54,-3.86 -0.83,2.21 2.05,-4.4 13.33,5.55 27.12,11.92 41.87,5.96 -6.54,29.83 15.35,37.08 17.08,41.55 2.78,7.15 -11.85,21.38 -22.87,17.42 -14.06,-5.01 -8.21,-22.66 -10.85,-35.02 -1.46,-6.84 -9.97,-11.86 -17.04,-9.41 -11.63,3.98 -16.3,14.76 -19.18,26.87 -1.93,8.05 -17.68,9.02 -21.09,2.43 -9.68,-18.72 5.75,2.18 4.75,-12.04 -0.16,-2.41 -11.3,-0.59 -13.8,-9.02 -1.69,-5.74 3.77,-9.58 10.66,-11.6 1.26,-0.37 -1.33,2.85 0.4,3.55 1.25,0.49 6.3,-2.21 5.7,-2.54 -6.63,-4.04 -8.32,-13.38 3.52,-17.46 0.09,-0.02 -0.86,3.36 0.04,4.04 9.26,6.86 18.91,-0.56 18.93,-0.33"
         style="fill:#c41b31;fill-opacity:1;fill-rule:nonzero;stroke:none"
         id="path76" />
      <path
         d="m 1002.98,923.922 c 11.08,-5.102 14.67,0.379 29.24,2.726 2.04,0.34 10.24,-4.976 12.62,-7.687 -14.6,-2.301 -32.37,-14.961 -41.86,4.961"
         style="fill:#c41b31;fill-opacity:1;fill-rule:nonzero;stroke:none"
         id="path78" />
      <path
         d="m 997.043,912.309 c -0.676,0.761 -1.633,1.062 -2.535,1.41 -0.903,0.429 -1.875,0.75 -2.922,0.871 -0.258,0.058 -2.098,0.48 -2.383,0.59 -0.062,-0.649 0.785,-2.34 0.305,-2.77 -1.164,-1.078 -1.578,-0.82 -2.516,-2.219 -0.344,-0.562 -0.715,-1.089 -0.847,-1.722 -0.27,-1.258 -0.832,-2.719 -0.977,-4.16 -0.051,-0.739 0.254,-2.469 0.418,-3.118 0.102,-0.363 0.879,-1.929 1.098,-2.359 0,0 1.769,-1.891 1.675,-1.801 2.051,-2.09 0.371,-0.859 2.903,-3.371 1.293,-1.211 -0.594,-3.32 -1.836,-2.961 -8.571,2.461 -9.77,12.36 -17.574,15.391 -5.696,2.191 -13.864,-2.219 -14.727,-10.828 1.918,0.558 3.91,-0.172 4.285,-1.75 2.098,-8.692 14.875,-3.512 15.176,-9.614 0.23,-3.988 -9.555,0.68 -13.422,-1.867 -5.117,-3.39 -5.809,-13.16 -1.309,-18.851 4.661,4.39 10.45,-2.039 14.961,1.148 3.168,2.274 4.289,5.442 7.52,6.863 9.824,4.309 12.707,-4.679 10.535,-13.73 5.309,2.449 17.789,5.008 20.649,5.809 5.17,1.378 5.4,13.261 11.74,17.64 -8.99,0.031 -20.1,3.91 -22.59,12.641 -0.24,0.918 0.39,1.988 0.48,3.051 0.22,3.328 -0.09,6.546 -1.36,9.597 -0.12,0.321 -0.45,0.731 -0.69,1.121 -0.35,0.469 -0.65,0.989 -1,1.489 -0.89,1.23 -2.205,1.812 -3.491,2.601 -0.566,0.371 -1.265,0.481 -1.679,1.051"
         style="fill:#c41b31;fill-opacity:1;fill-rule:nonzero;stroke:none"
         id="path80" />
      <path
         d="m 931.051,850.762 c 3.929,-7.602 -15.438,4.578 -22.699,-6.672 -2.313,-3.621 -1.067,-11.758 -1.067,-16.352 4.438,4.012 8.871,-3.629 17.18,3.692 0.922,-0.828 1.914,-1.34 0.652,-2.621 -3.07,-3.071 -4.789,-6.918 -3.164,-10.61 1.016,-2.429 7.91,-7.269 7.969,-6.847 0.703,4.949 9.211,0 10.539,9.75 0.57,4.019 1.746,10.687 7.605,8.269 5.332,-2.199 6.438,-8.199 5.192,-14.18 8.504,2.77 23.461,11.45 32.387,5.028 11.996,-8.61 31.705,-12.188 45.735,-16.508 -9.31,6.43 -12.27,23.23 -10.72,34.168 -22.105,-4.32 -45.305,-3.59 -65.801,5.84 -5.601,2.59 -4.847,9.043 -6.539,14.351 -1.918,5.969 -9.472,11.489 -16.328,10.969 -3.679,-0.277 -12.523,-7.969 -10.847,-8.348 -0.579,0.129 -0.559,-1.121 -0.852,-1.679 1.664,1.039 3.773,0 4.527,-1.793 0.535,-1.239 1.059,-2.617 2.118,-3.617 1.25,-1.223 3.417,-1.524 4.113,-2.84"
         style="fill:#c41b31;fill-opacity:1;fill-rule:nonzero;stroke:none"
         id="path82" />
      <path
         d="m 984.027,730.57 c 4.293,5.239 7.864,2.442 9.739,2.399 4.48,-0.141 4.172,-6.43 3.718,-10.457 17.576,8.476 34.316,20.539 54.936,16.109 -12,12.508 -7.74,39.34 9.23,42.66 0.04,0 -10.95,1.778 -12.11,2.508 -14.76,9.32 -32.82,18.223 -42.74,-1.301 -4.94,-9.718 4.13,-17.547 10.91,-25.539 1.22,-1.469 -0.76,-2.347 -2.34,-2.758 -16.14,-4.121 -45.89,-6.531 -47.218,17.5 -0.144,2.438 -6.39,4.438 -10.414,4.329 -11.953,-0.36 -11.761,-15.54 -10.398,-14.481 2.609,1.973 10.613,1.27 9.648,-4.809 -0.894,-5.671 -12.043,2.989 -16.484,-2.718 -3.727,-4.762 -3.609,-12.582 -0.969,-17.832 -0.531,1.91 1.715,3.34 2.926,3.511 12.398,2.09 13.098,-2.203 9.426,-14.152 -0.285,-0.898 3.664,-8.461 6.273,-9.148 -0.207,0.089 -0.164,1.75 0.195,2.308 0.344,0.571 0.958,1 1.583,1.223 1.347,0.418 2.718,0.359 4.082,0.719 0.644,0.199 1.132,0.609 1.742,0.98 0.976,0.59 1.636,1.449 2.34,2.34 2.89,3.598 5.421,8.219 10.281,8.687 2.242,0.223 3.668,-0.789 5.597,-2.019"
         style="fill:#c41b31;fill-opacity:1;fill-rule:nonzero;stroke:none"
         id="path84" />
      <path
         d="m 1112.3,674.809 c 11.32,11.211 19.51,26.132 31.63,37.05 -13.28,7.789 -29.76,15.922 -31.5,33.403 -0.13,1.179 1.84,2.488 2.31,2.269 18.47,-10.32 43.38,-11.14 56.71,7.629 10.74,15.192 15.41,39.828 36.38,41.238 -6.98,13.34 0.87,28.743 12.34,35.762 -3.88,1.469 -8.85,4.621 -13.2,3.828 -5.29,-0.906 -7.56,-8.058 -13.59,-9.16 9.49,31.844 -8.87,76.293 -44.1,75.531 -6.6,-0.16 -15.15,-5.437 -17.32,-12.64 -2.03,-6.758 -3.08,-15.278 1.82,-21.078 11.55,-13.762 19.87,-28.743 16.23,-46.879 8.23,7.047 15.81,17.437 15.52,28.527 -0.05,2.77 5.01,0.793 5.79,1.93 9.62,14.031 -6.12,22.73 -14.48,31.57 -2.31,2.391 3.58,6.102 4.32,5.84 30.22,-8.988 33.08,-46.02 20.13,-70.09 -3.44,4.281 -16.24,2.883 -20.56,4.332 14.13,-7.09 10.47,-8.101 9.88,-10.441 -1.07,-4.231 -13.75,-2.391 -16.22,-5.5 -4.23,-5.399 -7.42,-7.77 -7.75,-25.66 5.86,6.289 13.55,15.832 21.87,11.57 17.79,-9.078 -0.88,-39.68 -17.65,-44.75 -14.33,-4.309 -27.6,0.23 -36.47,12.64 -12.83,17.961 -3.52,39.719 -12.63,57.93 -7.59,-1.871 -5.86,-11.73 -9.82,-9.969 -13.97,6.45 -21.91,21.309 -32.03,33.758 -4.18,-1.488 -6.05,-5.371 -10.09,-5.168 -5.98,0.258 -17.26,2.09 -19.67,-0.902 -2.78,-3.481 -4.83,-28.731 19.86,-37.891 16.76,-6.218 30.04,-11.769 40.6,-24.789 -7.08,-0.551 -9.54,2.832 -15.33,3.051 -5.69,0.211 -9.29,-1.98 -13.59,-4.18 -4.1,-2.109 -8.93,-10.14 -8.11,-16.531 3.87,-30.59 39.95,-31.008 56.55,-50.359 2.86,-3.27 -4.35,-16.559 -11.14,-21.95 -5.79,-4.589 -19.68,6.942 -17.43,16.711 1.83,7.77 -17.11,13.02 -23.75,4.079 2.64,0.308 3.3,-1.438 3.05,-2.629 -1.17,-7.231 7.81,-7.5 7.51,-11.161 -0.41,-5.05 -4.8,2.129 -8.26,2.782 -7.65,1.519 -15.24,-1.141 -19.72,-7.25 -1.34,-1.801 -4.35,-4.762 -3.03,-7.883 5.86,2.832 8.91,-6.219 14.35,-3.41 3.3,1.679 6.03,4.601 10.02,3.59 1.6,-0.43 3.24,-2.571 1.79,-3.477 -10.64,-6.812 -19.17,-16.352 -11.45,-27.203 0.19,2.543 2.2,4.332 3.82,4.781 3.11,0.879 7.22,-1.238 10.25,-0.269 4.95,1.679 2.39,6.558 4.29,10.058 2.95,5.539 13.02,14.672 18.67,8 1.05,-1.187 0.23,-5.66 -2.82,-5.699 3.13,0.039 5.92,-2.988 8.58,-2.43 0.75,0.129 1.55,0.129 2.23,0.489 0.6,0.293 1.28,0.429 1.73,0.902 1.25,1.238 2.69,2.578 2.89,4.559 2.28,-0.188 5.17,-0.43 6.66,1.531 1.45,1.929 3.26,3.429 4.85,4.91"
         style="fill:#c41b31;fill-opacity:1;fill-rule:nonzero;stroke:none"
         id="path86" />
      <path
         d="m 1060.81,895.949 c 19.79,5.531 41.78,15.742 46.52,37.633 6,-3.602 7.89,-11.773 7.96,-16.754 0.43,-27.43 -11.61,-51.117 -5.76,-79.828 0.64,-3.25 6.61,-13.449 3.9,-12.238 -3.3,1.476 -10.26,7.976 -14.1,4.949 -4.78,-3.742 -4.47,-9.641 -6.78,-8.27 -8.69,5.278 -17.89,13.059 -22.12,23.098 -1.64,3.789 -0.95,11.91 -2.03,10.762 -6.59,-7.18 -20.13,-8.711 -30.16,-10.231 2.29,2.039 4.34,10.211 3.97,11.899 -7.88,3.929 -19.21,-9.489 -19.02,-7.789 0.42,4.351 0.89,5.679 1.31,6.871 5.87,17.179 16.94,34.578 36.31,39.898"
         style="fill:#c41b31;fill-opacity:1;fill-rule:nonzero;stroke:none"
         id="path88" />
      <path
         d="m 899.703,1352.25 c 0.832,0.37 1.258,0.95 1.152,1.05 -7.171,10.02 -15.816,9.03 -19.464,0.1 -2.481,-6.03 11.961,-4.09 18.312,-1.15 m 14.031,10.64 c 5.133,0.14 8.926,3.31 12.188,6.74 -0.254,-2.87 3.98,-6.95 2.406,-10 -1.957,-3.85 -6.91,-6.15 -7.879,-9.73 -2.031,-7.32 3.875,-14.47 -0.433,-21.71 -12.707,-21.39 -40.438,-14.32 -59.387,-19.06 1.309,2.31 -0.32,5.74 -1.742,6.69 8.41,-1.07 19.586,0.77 21.84,7.09 2.769,7.78 4.152,13.54 0.48,19.97 -6.078,10.61 -18.691,5.66 -28.164,1.97 -1.496,6.58 4.711,10.58 8.281,11.49 10.043,2.63 19.141,6.96 28.5,10.42 8.141,3.05 15.563,-4.08 23.91,-3.87"
         style="fill:#c41b31;fill-opacity:1;fill-rule:nonzero;stroke:none"
         id="path90" />
      <path
         d="m 1267.27,1356.06 c 0.8,0.47 -0.63,-0.61 0.03,0.06 -7.84,3.9 -18.05,9.02 -21.63,-1.41 -2.63,-7.64 14.81,-2.28 21.6,1.35 m 12.57,-33.48 c -2.71,-2.32 -7.24,-2.26 -10.31,-4.33 -1.88,-1.31 -3.57,-2.69 -5.52,-3.86 -0.91,-0.57 -3.64,-1.78 -4.63,-2.02 -2.76,-0.71 -2.16,-0.38 -4.71,-0.71 -1.53,-0.22 -2.24,-0.29 -3.77,-0.29 -1.52,0 -6.2,-0.12 -7.7,-0.1 -3.61,0.08 -4.22,-0.15 -7.83,0.39 -2.07,0.33 -4.06,0.88 -6.01,1.55 -1.31,0.43 -2.71,0.68 -4.09,0.71 0.16,1.44 0.34,3 1.48,3.94 1.5,1.28 1.79,0.13 3.99,0.33 0.1,0.02 3.11,-0.26 3.22,-0.26 0.51,0.02 1.12,0.04 1.65,0.12 0.95,0.14 1.74,0.33 2.59,0.74 1.08,0.5 2.26,0.82 3.25,1.6 0.33,0.3 0.72,0.57 1.07,0.9 0.72,0.69 1.7,1.04 2.35,1.84 2.06,2.5 3.61,4.93 3.82,8.14 0.21,2.39 0.39,4.85 -0.05,7.29 -0.07,0.39 -0.13,0.78 -0.16,1.13 -0.15,1.9 -1.09,3.67 -2.02,5.43 -5.5,10.43 -18.7,0.22 -27.73,0.68 0,2 -0.19,5.66 0.82,6.96 6.45,8.28 16.43,4.21 21.59,8.01 17.4,12.82 22.02,3.57 40.21,-1.43 5.46,-1.5 13.26,1.91 18.43,4.11 1.26,0.54 1.25,-7.65 0.61,-9.31 -2.18,-5.73 -8.13,-5.44 -10.23,-10.58 -3.06,-7.54 -3.53,-18.17 -11.56,-21.97"
         style="fill:#c41b31;fill-opacity:1;fill-rule:nonzero;stroke:none"
         id="path92" />
      <path
         d="m 1061.89,937.82 c 3.11,-1.148 12.33,3.899 15.67,5.77 0.81,0.449 1.38,1.242 2.02,1.89 0.05,0.09 -0.06,0.29 -0.19,0.309 -2.65,0.551 -5.04,0.75 -7.63,1.02 -1.94,0.242 -3.39,1.55 -5.33,1.921 -0.5,0.122 -0.97,0.032 -1.51,-0.148 -0.74,-0.281 -0.99,-0.832 -1.59,-1.102 -0.94,-0.429 -2.27,-0.429 -3.11,-1.21 -0.86,-0.77 -1.6,-1.5 -1.86,-2.61 -0.36,-1.269 -0.07,-3.14 0.82,-4.238 0.7,-0.883 1.74,-1.262 2.71,-1.602 m 23.91,14 c 8.05,-1.89 16.83,-2.16 22.05,4.852 2.55,-10.844 -7.44,-12.223 -9.3,-17.524 -2.8,-8.078 -2.62,-16.16 -10.48,-20.328 -15.66,-8.289 -35.24,-18.25 -53.2,-19.699 0.14,2.168 -1.38,6.18 1.51,6.32 6.28,0.289 11.18,4.95 12.6,8.637 1.97,5.152 -0.27,17.66 -4.96,20.094 -5.41,2.859 -10.15,-1.512 -15.13,-3.692 -2.08,5.481 6.5,14.559 19.96,13.77 -0.35,0.02 6.67,7.629 6.34,7.398 8.79,6.012 18.43,2.981 30.61,0.172"
         style="fill:#c41b31;fill-opacity:1;fill-rule:nonzero;stroke:none"
         id="path94" />
      <path
         d="m 1329.98,1027.7 c -0.27,2.65 6.35,10.48 6.52,16.26 0.63,19.61 12.5,28.87 12.85,49.83 0.07,5.45 -22.68,10.59 -23.67,22.38 -0.47,5.84 -2.41,14.28 3.47,14.16 7.54,-0.14 14.96,1.2 20.29,5.88 23.81,20.86 3.71,49.34 0.83,74.5 -0.63,5.52 9.63,17.39 9.33,21.3 -1.65,21.33 -5.62,40.79 2.01,61.76 -5.98,-5.33 -7.78,-14.14 -12.8,-18.63 -2.44,-2.25 -3.64,2.72 -3.47,3.5 3,18.43 10.39,34.57 18.97,52.11 10.14,20.76 5.07,37.63 -13.71,43.84 -17.23,5.7 -33.85,-10.25 -35.71,-26.63 -1.73,-15.03 2.97,-33.05 6.55,-45.35 1.03,-3.6 0.41,-7.7 1.18,-10.83 3.07,12.42 3.42,25.4 3.22,38.54 -0.05,3.21 2.51,7.51 5.82,8.45 11.18,3.23 16.97,-4.82 16.23,-11.07 -2.47,-19.69 -6.46,-34.77 -11.2,-54.32 -5.4,-22.33 2.65,-44.47 5.01,-66.17 -8.61,5.03 -17.97,5.27 -21.29,-8.07 -1.81,-7.09 4.62,-14.55 6.6,-20.82 0.2,8.54 8.29,20.18 16.15,14.98 9.64,-6.38 9.99,-37.01 7.87,-41.07 -4.7,-8.87 -12.39,-15.21 -23.07,-12.07 -6.03,1.76 -3.58,10.63 -7.19,14.38 -19.19,19.74 -27.93,43.35 -29.56,70.64 -0.27,3.98 1.82,14.46 1.24,14.69 -25.09,10.29 -36.65,0.04 -47.06,-14.69 -1.8,4.45 -11.38,10.7 -12.14,9.3 -4.77,-8.79 -3.4,-24.75 3.74,-30.92 19.35,-16.66 38.52,-27.82 49.39,-51.63 -11.59,-1.5 -22.93,-4.86 -27.39,-16.93 -4.65,-12.6 -3.06,-30.12 10.32,-35.25 10.91,-4.18 29.64,0.49 33.74,-0.03 11.59,-1.51 24.55,-11.44 22.74,-22.36 -0.1,-0.56 -4.97,-26.02 -16.05,-19.69 -6,3.41 -2.64,17.37 -11.77,19.56 -12.32,2.96 -15.34,-14.15 -13.78,-12.68 3.93,3.72 6.65,-2.42 14.27,-6.6 -25.79,5.56 -17.78,-17.97 -16.84,-15.37 1.32,3.65 5.99,-0.16 15.24,0.47 0.33,0 -2.02,-1.92 -2.15,-2.13 -1.44,-2.35 -2.16,-3.51 -3.21,-6 -0.51,-1.17 -0.45,-2.46 -0.28,-3.67 0.11,-1.27 0.57,-2.37 1.25,-3.46 0.13,-0.24 0.37,-0.45 0.65,-0.59 0.11,-0.04 0.48,-0.62 0.55,-0.62 0.56,-0.06 -0.51,1.8 0.99,1.91 0.35,0.05 1.44,0.2 1.73,0.09 0.68,-0.26 1.56,-0.69 2.28,-0.88 0.66,-0.16 1.36,-0.29 2.1,-0.42 1.75,-0.23 2.37,-0.29 3.92,0.26 1.29,0.44 2.59,0.72 3.82,1.58 -1.65,-1.14 1.83,1.66 1.68,1.35 1.59,3.42 2.59,2.44 2.94,3.03 2.74,5.2 5.12,5.7 11.18,4.96 0.58,-0.06 1.7,-1.29 2.06,-1.82 0.44,-0.65 1.69,-3.92 1.46,-2.71 0.44,-2.41 1.93,-3.91 2.15,-6.23"
         style="fill:#c41b31;fill-opacity:1;fill-rule:nonzero;stroke:none"
         id="path96" />
      <path
         d="m 1144.04,1263.87 c -1.55,1 -2.08,3.38 -3.16,4.36 -0.33,0.35 -0.61,0.76 -0.96,1.13 -0.53,0.55 -0.78,1.31 -1,2.07 -1.06,3.65 -0.51,7.99 2.81,10.43 0.14,0.12 0.1,0.31 0.16,0.45 0.18,0.34 0.69,0.51 0.78,0.78 0.09,0.31 0.64,0.31 0.46,0.73 0.23,-0.11 0.24,0.23 0.33,0.31 0.67,0.85 0.7,2.38 -0.58,2.79 1.07,-0.09 2.15,-0.06 3.22,-0.3 0.42,-0.09 0.85,-0.21 1.25,-0.25 4.07,-0.53 9.19,-2.36 10.29,-6.43 l 1.43,-1.62 c 4.24,-9.82 2.79,-33.93 26.38,-39.72 12.28,-3.03 24.64,-6.82 37.25,-6.59 -3.05,-12.22 -3.01,-27.73 6.72,-36.58 -14.16,7.68 -23.59,6.06 -35.89,17.66 -5.51,5.18 -18.31,12.23 -24.49,11.19 -2.55,-0.43 3.53,8.14 -2.15,9.85 -3.72,1.1 -13.65,0.85 -15.36,-1.68 -8.16,-12.22 -16.74,-12.15 -19.62,-14.61 3.31,2.8 -13.36,16.32 7.34,23.66 1.99,0.73 2.71,5.2 0.28,6.34 -4.06,1.86 -7.44,-0.92 -11.44,-3.25 -4.58,-2.71 -5.64,7.21 -12.84,3.55 -1.49,21.19 17.49,23.02 28.79,9.79 0.79,-0.99 3.96,0.21 2.64,1.33 l -2.64,4.61"
         style="fill:#c41b31;fill-opacity:1;fill-rule:nonzero;stroke:none"
         id="path98" />
      <path
         d="m 1401.33,1356.1 c -2.92,-139.2 -5.78,-273.01 -46.87,-402.202 L 1064.3,1183.12 772.934,953.23 c -41.317,129.46 -44.164,263.55 -47.09,403.06 -0.274,13.26 -0.555,26.55 -0.864,39.86 h 677.24 c -0.32,-13.37 -0.61,-26.73 -0.89,-40.05 z M 1275.08,786.48 C 1227.46,713.73 1154.43,652.891 1063.75,610.379 972.953,652.781 899.805,713.621 852.09,786.48 c -7.988,12.2 -15.418,24.43 -22.402,36.731 l 234.592,185.039 233.51,-184.488 c -7.07,-12.481 -14.6,-24.891 -22.71,-37.282 z M 787.074,913.141 1064.28,1131.78 1340.32,913.719 c -6.95,-18.008 -14.71,-35.891 -23.42,-53.707 L 1064.3,1059.57 810.574,859.391 c -8.734,17.828 -16.531,35.738 -23.5,53.75 z m -75.847,496.359 0.164,-6.84 c 0.386,-15.59 0.711,-31.13 1.031,-46.64 4.234,-202.27 8.23,-393.329 128.414,-576.848 49.59,-75.711 125.707,-138.731 220.114,-182.223 l 2.82,-1.308 2.83,1.308 c 94.26,43.621 170.25,106.641 219.73,182.223 120.16,183.449 124.18,374.428 128.42,576.648 0.33,15.57 0.66,31.2 1.04,46.84 l 0.17,6.84 H 711.227"
         style="fill:#231f20;fill-opacity:1;fill-rule:nonzero;stroke:none"
         id="path100" />
    </g>
  </g>
</svg>
